<mxfile host="app.diagrams.net" modified="2024-05-26T09:44:08.005Z" agent="Mozilla/5.0 (Macintosh; Intel Mac OS X 10_15_7) AppleWebKit/537.36 (KHTML, like Gecko) Chrome/125.0.0.0 Safari/537.36" etag="BAgqJ7ym59t73o9Nb8W2" version="24.4.8" type="device">
  <diagram id="R2lEEEUBdFMjLlhIrx00" name="Page-1">
    <mxGraphModel dx="605" dy="1000" grid="1" gridSize="10" guides="1" tooltips="1" connect="1" arrows="1" fold="1" page="1" pageScale="1" pageWidth="850" pageHeight="1100" math="0" shadow="0" extFonts="Permanent Marker^https://fonts.googleapis.com/css?family=Permanent+Marker">
      <root>
        <mxCell id="0" />
        <mxCell id="1" parent="0" />
        <mxCell id="bBJHcZsrLs3FBUBnP_mD-7" value="" style="edgeStyle=orthogonalEdgeStyle;rounded=0;orthogonalLoop=1;jettySize=auto;html=1;endArrow=ERone;endFill=0;startArrow=ERone;startFill=0;" edge="1" parent="1" source="bBJHcZsrLs3FBUBnP_mD-1" target="bBJHcZsrLs3FBUBnP_mD-5">
          <mxGeometry relative="1" as="geometry" />
        </mxCell>
        <mxCell id="bBJHcZsrLs3FBUBnP_mD-1" value="User" style="swimlane;fontStyle=1;align=center;verticalAlign=middle;childLayout=stackLayout;horizontal=1;startSize=29;horizontalStack=0;resizeParent=1;resizeParentMax=0;resizeLast=0;collapsible=0;marginBottom=0;html=1;whiteSpace=wrap;rounded=1;fillColor=#D9D9D9;" vertex="1" parent="1">
          <mxGeometry x="160" y="230" width="140" height="54" as="geometry" />
        </mxCell>
        <mxCell id="bBJHcZsrLs3FBUBnP_mD-2" value="user_id" style="text;html=1;strokeColor=none;fillColor=none;align=center;verticalAlign=middle;spacingLeft=4;spacingRight=4;overflow=hidden;rotatable=0;points=[[0,0.5],[1,0.5]];portConstraint=eastwest;whiteSpace=wrap;" vertex="1" parent="bBJHcZsrLs3FBUBnP_mD-1">
          <mxGeometry y="29" width="140" height="25" as="geometry" />
        </mxCell>
        <mxCell id="bBJHcZsrLs3FBUBnP_mD-19" value="" style="edgeStyle=orthogonalEdgeStyle;rounded=0;orthogonalLoop=1;jettySize=auto;html=1;endArrow=ERmany;endFill=0;startArrow=ERone;startFill=0;" edge="1" parent="1" source="bBJHcZsrLs3FBUBnP_mD-5" target="bBJHcZsrLs3FBUBnP_mD-14">
          <mxGeometry relative="1" as="geometry" />
        </mxCell>
        <mxCell id="bBJHcZsrLs3FBUBnP_mD-5" value="Repository" style="swimlane;fontStyle=1;align=center;verticalAlign=middle;childLayout=stackLayout;horizontal=1;startSize=29;horizontalStack=0;resizeParent=1;resizeParentMax=0;resizeLast=0;collapsible=0;marginBottom=0;html=1;whiteSpace=wrap;rounded=1;fillColor=#D9D9D9;" vertex="1" parent="1">
          <mxGeometry x="510" y="192.5" width="140" height="129" as="geometry" />
        </mxCell>
        <mxCell id="bBJHcZsrLs3FBUBnP_mD-6" value="repo_id" style="text;html=1;strokeColor=none;fillColor=none;align=center;verticalAlign=middle;spacingLeft=4;spacingRight=4;overflow=hidden;rotatable=0;points=[[0,0.5],[1,0.5]];portConstraint=eastwest;whiteSpace=wrap;" vertex="1" parent="bBJHcZsrLs3FBUBnP_mD-5">
          <mxGeometry y="29" width="140" height="25" as="geometry" />
        </mxCell>
        <mxCell id="bBJHcZsrLs3FBUBnP_mD-9" value="user_id" style="text;html=1;strokeColor=none;fillColor=none;align=center;verticalAlign=middle;spacingLeft=4;spacingRight=4;overflow=hidden;rotatable=0;points=[[0,0.5],[1,0.5]];portConstraint=eastwest;whiteSpace=wrap;" vertex="1" parent="bBJHcZsrLs3FBUBnP_mD-5">
          <mxGeometry y="54" width="140" height="25" as="geometry" />
        </mxCell>
        <mxCell id="bBJHcZsrLs3FBUBnP_mD-10" value="name" style="text;html=1;strokeColor=none;fillColor=none;align=center;verticalAlign=middle;spacingLeft=4;spacingRight=4;overflow=hidden;rotatable=0;points=[[0,0.5],[1,0.5]];portConstraint=eastwest;whiteSpace=wrap;" vertex="1" parent="bBJHcZsrLs3FBUBnP_mD-5">
          <mxGeometry y="79" width="140" height="25" as="geometry" />
        </mxCell>
        <mxCell id="bBJHcZsrLs3FBUBnP_mD-11" value="url" style="text;html=1;strokeColor=none;fillColor=none;align=center;verticalAlign=middle;spacingLeft=4;spacingRight=4;overflow=hidden;rotatable=0;points=[[0,0.5],[1,0.5]];portConstraint=eastwest;whiteSpace=wrap;" vertex="1" parent="bBJHcZsrLs3FBUBnP_mD-5">
          <mxGeometry y="104" width="140" height="25" as="geometry" />
        </mxCell>
        <mxCell id="bBJHcZsrLs3FBUBnP_mD-25" value="" style="edgeStyle=orthogonalEdgeStyle;rounded=0;orthogonalLoop=1;jettySize=auto;html=1;endArrow=ERone;endFill=0;startArrow=ERone;startFill=0;" edge="1" parent="1" source="bBJHcZsrLs3FBUBnP_mD-14" target="bBJHcZsrLs3FBUBnP_mD-20">
          <mxGeometry relative="1" as="geometry" />
        </mxCell>
        <mxCell id="bBJHcZsrLs3FBUBnP_mD-14" value="CodeFile" style="swimlane;fontStyle=1;align=center;verticalAlign=middle;childLayout=stackLayout;horizontal=1;startSize=29;horizontalStack=0;resizeParent=1;resizeParentMax=0;resizeLast=0;collapsible=0;marginBottom=0;html=1;whiteSpace=wrap;rounded=1;fillColor=#D9D9D9;" vertex="1" parent="1">
          <mxGeometry x="510" y="401.5" width="140" height="129" as="geometry" />
        </mxCell>
        <mxCell id="bBJHcZsrLs3FBUBnP_mD-15" value="file_id" style="text;html=1;strokeColor=none;fillColor=none;align=center;verticalAlign=middle;spacingLeft=4;spacingRight=4;overflow=hidden;rotatable=0;points=[[0,0.5],[1,0.5]];portConstraint=eastwest;whiteSpace=wrap;" vertex="1" parent="bBJHcZsrLs3FBUBnP_mD-14">
          <mxGeometry y="29" width="140" height="25" as="geometry" />
        </mxCell>
        <mxCell id="bBJHcZsrLs3FBUBnP_mD-16" value="repo_id" style="text;html=1;strokeColor=none;fillColor=none;align=center;verticalAlign=middle;spacingLeft=4;spacingRight=4;overflow=hidden;rotatable=0;points=[[0,0.5],[1,0.5]];portConstraint=eastwest;whiteSpace=wrap;" vertex="1" parent="bBJHcZsrLs3FBUBnP_mD-14">
          <mxGeometry y="54" width="140" height="25" as="geometry" />
        </mxCell>
        <mxCell id="bBJHcZsrLs3FBUBnP_mD-17" value="file_name" style="text;html=1;strokeColor=none;fillColor=none;align=center;verticalAlign=middle;spacingLeft=4;spacingRight=4;overflow=hidden;rotatable=0;points=[[0,0.5],[1,0.5]];portConstraint=eastwest;whiteSpace=wrap;" vertex="1" parent="bBJHcZsrLs3FBUBnP_mD-14">
          <mxGeometry y="79" width="140" height="25" as="geometry" />
        </mxCell>
        <mxCell id="bBJHcZsrLs3FBUBnP_mD-18" value="content" style="text;html=1;strokeColor=none;fillColor=none;align=center;verticalAlign=middle;spacingLeft=4;spacingRight=4;overflow=hidden;rotatable=0;points=[[0,0.5],[1,0.5]];portConstraint=eastwest;whiteSpace=wrap;" vertex="1" parent="bBJHcZsrLs3FBUBnP_mD-14">
          <mxGeometry y="104" width="140" height="25" as="geometry" />
        </mxCell>
        <mxCell id="bBJHcZsrLs3FBUBnP_mD-30" value="" style="edgeStyle=orthogonalEdgeStyle;rounded=0;orthogonalLoop=1;jettySize=auto;html=1;startArrow=ERone;startFill=0;endArrow=ERmany;endFill=0;" edge="1" parent="1" source="bBJHcZsrLs3FBUBnP_mD-20" target="bBJHcZsrLs3FBUBnP_mD-26">
          <mxGeometry relative="1" as="geometry" />
        </mxCell>
        <mxCell id="bBJHcZsrLs3FBUBnP_mD-20" value="AnalysisReport" style="swimlane;fontStyle=1;align=center;verticalAlign=middle;childLayout=stackLayout;horizontal=1;startSize=29;horizontalStack=0;resizeParent=1;resizeParentMax=0;resizeLast=0;collapsible=0;marginBottom=0;html=1;whiteSpace=wrap;rounded=1;fillColor=#D9D9D9;" vertex="1" parent="1">
          <mxGeometry x="300" y="414" width="140" height="104" as="geometry" />
        </mxCell>
        <mxCell id="bBJHcZsrLs3FBUBnP_mD-21" value="report_id" style="text;html=1;strokeColor=none;fillColor=none;align=center;verticalAlign=middle;spacingLeft=4;spacingRight=4;overflow=hidden;rotatable=0;points=[[0,0.5],[1,0.5]];portConstraint=eastwest;whiteSpace=wrap;" vertex="1" parent="bBJHcZsrLs3FBUBnP_mD-20">
          <mxGeometry y="29" width="140" height="25" as="geometry" />
        </mxCell>
        <mxCell id="bBJHcZsrLs3FBUBnP_mD-22" value="repo_id" style="text;html=1;strokeColor=none;fillColor=none;align=center;verticalAlign=middle;spacingLeft=4;spacingRight=4;overflow=hidden;rotatable=0;points=[[0,0.5],[1,0.5]];portConstraint=eastwest;whiteSpace=wrap;" vertex="1" parent="bBJHcZsrLs3FBUBnP_mD-20">
          <mxGeometry y="54" width="140" height="25" as="geometry" />
        </mxCell>
        <mxCell id="bBJHcZsrLs3FBUBnP_mD-23" value="generated_at" style="text;html=1;strokeColor=none;fillColor=none;align=center;verticalAlign=middle;spacingLeft=4;spacingRight=4;overflow=hidden;rotatable=0;points=[[0,0.5],[1,0.5]];portConstraint=eastwest;whiteSpace=wrap;" vertex="1" parent="bBJHcZsrLs3FBUBnP_mD-20">
          <mxGeometry y="79" width="140" height="25" as="geometry" />
        </mxCell>
        <mxCell id="bBJHcZsrLs3FBUBnP_mD-37" value="" style="edgeStyle=orthogonalEdgeStyle;rounded=0;orthogonalLoop=1;jettySize=auto;html=1;endArrow=ERmany;endFill=0;startArrow=ERone;startFill=0;entryX=-0.002;entryY=0.13;entryDx=0;entryDy=0;entryPerimeter=0;" edge="1" parent="1" source="bBJHcZsrLs3FBUBnP_mD-31" target="bBJHcZsrLs3FBUBnP_mD-35">
          <mxGeometry relative="1" as="geometry">
            <mxPoint x="151.81999999999994" y="540.0049999999998" as="sourcePoint" />
            <mxPoint x="490" y="667" as="targetPoint" />
            <Array as="points">
              <mxPoint x="152" y="668" />
            </Array>
          </mxGeometry>
        </mxCell>
        <mxCell id="bBJHcZsrLs3FBUBnP_mD-26" value="Suggestion" style="swimlane;fontStyle=1;align=center;verticalAlign=middle;childLayout=stackLayout;horizontal=1;startSize=29;horizontalStack=0;resizeParent=1;resizeParentMax=0;resizeLast=0;collapsible=0;marginBottom=0;html=1;whiteSpace=wrap;rounded=1;fillColor=#D9D9D9;" vertex="1" parent="1">
          <mxGeometry x="80" y="401.5" width="140" height="129" as="geometry" />
        </mxCell>
        <mxCell id="bBJHcZsrLs3FBUBnP_mD-27" value="sugg_id" style="text;html=1;strokeColor=none;fillColor=none;align=center;verticalAlign=middle;spacingLeft=4;spacingRight=4;overflow=hidden;rotatable=0;points=[[0,0.5],[1,0.5]];portConstraint=eastwest;whiteSpace=wrap;" vertex="1" parent="bBJHcZsrLs3FBUBnP_mD-26">
          <mxGeometry y="29" width="140" height="25" as="geometry" />
        </mxCell>
        <mxCell id="bBJHcZsrLs3FBUBnP_mD-28" value="report_id" style="text;html=1;strokeColor=none;fillColor=none;align=center;verticalAlign=middle;spacingLeft=4;spacingRight=4;overflow=hidden;rotatable=0;points=[[0,0.5],[1,0.5]];portConstraint=eastwest;whiteSpace=wrap;" vertex="1" parent="bBJHcZsrLs3FBUBnP_mD-26">
          <mxGeometry y="54" width="140" height="25" as="geometry" />
        </mxCell>
        <mxCell id="bBJHcZsrLs3FBUBnP_mD-29" value="des&lt;span style=&quot;background-color: initial;&quot;&gt;cription&lt;/span&gt;" style="text;html=1;strokeColor=none;fillColor=none;align=center;verticalAlign=middle;spacingLeft=4;spacingRight=4;overflow=hidden;rotatable=0;points=[[0,0.5],[1,0.5]];portConstraint=eastwest;whiteSpace=wrap;" vertex="1" parent="bBJHcZsrLs3FBUBnP_mD-26">
          <mxGeometry y="79" width="140" height="25" as="geometry" />
        </mxCell>
        <mxCell id="bBJHcZsrLs3FBUBnP_mD-31" value="status" style="text;html=1;strokeColor=none;fillColor=none;align=center;verticalAlign=middle;spacingLeft=4;spacingRight=4;overflow=hidden;rotatable=0;points=[[0,0.5],[1,0.5]];portConstraint=eastwest;whiteSpace=wrap;" vertex="1" parent="bBJHcZsrLs3FBUBnP_mD-26">
          <mxGeometry y="104" width="140" height="25" as="geometry" />
        </mxCell>
        <mxCell id="bBJHcZsrLs3FBUBnP_mD-32" value="ChangeRequest" style="swimlane;fontStyle=1;align=center;verticalAlign=middle;childLayout=stackLayout;horizontal=1;startSize=29;horizontalStack=0;resizeParent=1;resizeParentMax=0;resizeLast=0;collapsible=0;marginBottom=0;html=1;whiteSpace=wrap;rounded=1;fillColor=#D9D9D9;" vertex="1" parent="1">
          <mxGeometry x="380" y="585.5" width="140" height="154" as="geometry" />
        </mxCell>
        <mxCell id="bBJHcZsrLs3FBUBnP_mD-33" value="change_id" style="text;html=1;strokeColor=none;fillColor=none;align=center;verticalAlign=middle;spacingLeft=4;spacingRight=4;overflow=hidden;rotatable=0;points=[[0,0.5],[1,0.5]];portConstraint=eastwest;whiteSpace=wrap;" vertex="1" parent="bBJHcZsrLs3FBUBnP_mD-32">
          <mxGeometry y="29" width="140" height="25" as="geometry" />
        </mxCell>
        <mxCell id="bBJHcZsrLs3FBUBnP_mD-34" value="sugg_id" style="text;html=1;strokeColor=none;fillColor=none;align=center;verticalAlign=middle;spacingLeft=4;spacingRight=4;overflow=hidden;rotatable=0;points=[[0,0.5],[1,0.5]];portConstraint=eastwest;whiteSpace=wrap;" vertex="1" parent="bBJHcZsrLs3FBUBnP_mD-32">
          <mxGeometry y="54" width="140" height="25" as="geometry" />
        </mxCell>
        <mxCell id="bBJHcZsrLs3FBUBnP_mD-35" value="repo_id" style="text;html=1;strokeColor=none;fillColor=none;align=center;verticalAlign=middle;spacingLeft=4;spacingRight=4;overflow=hidden;rotatable=0;points=[[0,0.5],[1,0.5]];portConstraint=eastwest;whiteSpace=wrap;" vertex="1" parent="bBJHcZsrLs3FBUBnP_mD-32">
          <mxGeometry y="79" width="140" height="25" as="geometry" />
        </mxCell>
        <mxCell id="bBJHcZsrLs3FBUBnP_mD-36" value="action (accept/reject)" style="text;html=1;strokeColor=none;fillColor=none;align=center;verticalAlign=middle;spacingLeft=4;spacingRight=4;overflow=hidden;rotatable=0;points=[[0,0.5],[1,0.5]];portConstraint=eastwest;whiteSpace=wrap;" vertex="1" parent="bBJHcZsrLs3FBUBnP_mD-32">
          <mxGeometry y="104" width="140" height="25" as="geometry" />
        </mxCell>
        <mxCell id="bBJHcZsrLs3FBUBnP_mD-38" value="applied_at" style="text;html=1;strokeColor=none;fillColor=none;align=center;verticalAlign=middle;spacingLeft=4;spacingRight=4;overflow=hidden;rotatable=0;points=[[0,0.5],[1,0.5]];portConstraint=eastwest;whiteSpace=wrap;" vertex="1" parent="bBJHcZsrLs3FBUBnP_mD-32">
          <mxGeometry y="129" width="140" height="25" as="geometry" />
        </mxCell>
      </root>
    </mxGraphModel>
  </diagram>
</mxfile>
